<?xml version="1.0" encoding="UTF-8"?>
<!-- Uploaded to: SVG Find, www.svgrepo.com, Generator: SVG Find Mixer Tools -->
<svg fill="#000000" width="800px" height="800px" version="1.1" viewBox="144 144 512 512" xmlns="http://www.w3.org/2000/svg">
 <g fill-rule="evenodd">
  <path d="m359.16 472.39c6.6289-7.8203 13.762-15.574 21.359-23.172 48.941-48.941 104.32-78.363 143.91-80.973 0.082031-0.003906 0.16797-0.011719 0.25-0.015625 9-0.30469 17.789-2.8516 25.566-7.3984 0.042968-0.023438 0.082031-0.050782 0.12891-0.074219 22.617-12.688 46.789-14.027 46.789-14.027 2.2383-0.12109 4.4258 0.70703 6.0117 2.293 1.5859 1.5859 2.4141 3.7734 2.293 6.0117 0 0-1.3477 24.246-14.457 46.695-0.003906 0.003906-0.003906 0.003906 0 0.011719-4.5859 7.8359-7.1484 16.688-7.4492 25.762-0.003906 0.0625-0.003906 0.11719-0.003906 0.17188-2.1992 39.617-31.617 95.039-80.578 144-7.5977 7.5977-15.352 14.73-23.172 21.359 0 0-3.2461-17.984 0.67969-21.586 3.8203-3.5195 7.6094-7.1523 11.359-10.906 45.621-45.621 73.91-96.754 75.98-133.68 0.41016-11.645 3.707-23.012 9.5859-33.062 6.3555-10.887 9.4727-22.266 10.984-30.02-7.8047 1.4688-19.254 4.5156-30.285 10.691-9.9648 5.8125-21.215 9.0664-32.742 9.4844l-0.14453 0.011718c-36.922 2.543-88 30.809-133.57 76.383-3.75 3.75-7.3867 7.543-10.906 11.359-3.6016 3.9258-21.586 0.67969-21.586 0.67969z"/>
  <path d="m469.58 482.62c-20.035-20.035-44.734-30.762-66.262-31.262-15.48-0.35938-29.414 4.4766-39.5 14.562-10.086 10.086-14.922 24.023-14.562 39.5 0.5 21.523 11.23 46.227 31.262 66.262 20.035 20.035 44.734 30.762 66.262 31.262 15.48 0.35938 29.414-4.4766 39.5-14.562 10.086-10.086 14.922-24.023 14.562-39.5-0.5-21.523-11.23-46.227-31.262-66.262zm-11.133 11.133c16.832 16.832 26.234 37.406 26.656 55.492 0.25391 10.93-2.8359 20.883-9.957 28.004-7.1172 7.1172-17.074 10.207-28.004 9.957-18.086-0.41797-38.66-9.8242-55.492-26.656-16.832-16.832-26.234-37.406-26.656-55.492-0.25391-10.93 2.8359-20.883 9.957-28.004 7.1172-7.1172 17.074-10.207 28.004-9.957 18.086 0.41797 38.66 9.8242 55.492 26.656z"/>
  <path d="m421.92 614.48c-18.504-5.3242-36.875-16-52.539-31.664-7.293-7.293-13.508-15.176-18.602-23.391-2.2891-3.6914-7.1484-4.8281-10.84-2.5391-3.6914 2.2891-4.8281 7.1484-2.5391 10.84 5.7109 9.2031 12.672 18.043 20.848 26.219 17.672 17.672 38.441 29.656 59.316 35.66 4.1758 1.1992 8.543-1.2109 9.7422-5.3906 1.1992-4.1758-1.2148-8.543-5.3867-9.7383z"/>
  <path d="m335.98 538.29c-3.0742 3.0742-8.0586 3.0742-11.133 0-3.0742-3.0742-3.0742-8.0586 0-11.133 3.0742-3.0742 8.0586-3.0742 11.133 0 3.0742 3.0742 3.0742 8.0586 0 11.133"/>
  <path d="m436.18 438.09-19.48 19.48c-3.0703 3.0703 8.0625 14.203 11.133 11.133l19.48-19.48c3.0703-3.0703 3.0742-8.0586 0-11.133-3.0742-3.0742-8.0625-3.0703-11.133 0z"/>
  <path d="m491.85 404.7-22.266 22.266c-3.0703 3.0703-3.0742 8.0586 0 11.133s8.0625 3.0703 11.133 0l22.266-22.266c3.0703-3.0703 3.0742-8.0586 0-11.133-3.0742-3.0742-8.0625-3.0703-11.133 0z"/>
  <path d="m489.06 452.01-30.613 30.613 11.133 11.133 30.613-30.613c3.0742-3.0742 3.0742-8.0586 0-11.133-3.0742-3.0742-8.0586-3.0742-11.133 0z"/>
  <path d="m536.38 449.23-22.266 22.266c-3.0703 3.0703-3.0742 8.0586 0 11.133s8.0625 3.0703 11.133 0l22.266-22.266c3.0703-3.0703 3.0742-8.0586 0-11.133-3.0742-3.0742-8.0625-3.0703-11.133 0z"/>
  <path d="m502.98 504.89-19.48 19.48c-3.0703 3.0703 8.0625 14.203 11.133 11.133l19.48-19.48c3.0703-3.0703 3.0742-8.0586 0-11.133s-8.0625-3.0703-11.133 0z"/>
  <path d="m541.95 399.13-19.48 19.48c-3.0703 3.0703-3.0742 8.0586 0 11.133 3.0742 3.0742 8.0625 3.0703 11.133 0l19.48-19.48c3.0703-3.0703 3.0742-8.0586 0-11.133-3.0742-3.0742-8.0625-3.0703-11.133 0z"/>
  <path d="m222.5 434.21c-10.809 20.762-11.277 42.672-11.277 42.672-0.042968 2.1484 0.78516 4.2266 2.3047 5.7461 1.5195 1.5195 3.5977 2.3477 5.7461 2.3047 0 0 21.91-0.46875 42.688-11.281 21.559-2.5781 51.422-15.195 80.77-30.926 44.379-23.797 87.652-54.488 99.02-65.855l44.531-44.531c20.941-20.941 37.023-55.992 39.465-87.738 1.7188-22.445-3.3906-43.184-17.203-56.992-13.809-13.812-34.551-18.922-56.988-17.203-31.746 2.4453-66.797 18.527-87.738 39.465l-44.531 44.531c-11.367 11.367-42.059 54.641-65.855 99.02-15.727 29.34-28.348 59.199-30.934 80.785zm14.574 6.1211c0.5-0.92578 0.81641-1.9414 0.91797-2.9883 1.9922-20.184 14.324-48.512 29.316-76.477 22.879-42.672 52.184-84.402 63.113-95.328l44.531-44.531c18.559-18.559 49.676-32.73 77.812-34.895 17.488-1.3477 33.883 1.8633 44.648 12.629 10.766 10.766 13.977 27.16 12.629 44.648-2.1641 28.137-16.336 59.254-34.895 77.812l-44.531 44.531c-10.926 10.926-52.656 40.234-95.328 63.113-27.965 14.996-56.293 27.324-76.477 29.316-1.0469 0.10156-2.0664 0.41797-2.9883 0.91797-10.109 5.5117-20.691 8.0195-27.914 9.168 1.1484-7.2266 3.6562-17.809 9.168-27.914z"/>
  <path d="m219.09 465.92-22.262 22.266c-3.0703 3.0703-3.0742 8.0586 0 11.133 3.0742 3.0742 8.0625 3.0703 11.133 0l22.266-22.266z"/>
  <path d="m341.55 321.2-77.93 77.93c-3.0742 3.0742-3.0742 8.0586 0 11.133 3.0742 3.0742 8.0586 3.0742 11.133 0l77.93-77.93c3.0742-3.0742 3.0742-8.0586 0-11.133-3.0742-3.0742-8.0586-3.0742-11.133 0z"/>
  <path d="m352.69 365.73-33.398 33.398c-3.0742 3.0742-3.0742 8.0586 0 11.133 3.0742 3.0742 8.0586 3.0703 11.133 0l33.398-33.398c3.0742-3.0742 3.0742-8.0586 0-11.133-3.0742-3.0742-8.0586-3.0703-11.133 0z"/>
  <path d="m436.18 304.5-33.398 33.398c-3.0742 3.0742-3.0742 8.0586 0 11.133 3.0742 3.0742 8.0586 3.0703 11.133 0l33.398-33.398c3.0742-3.0742 3.0742-8.0586 0-11.133-3.0742-3.0742-8.0586-3.0703-11.133 0z"/>
  <path d="m374.95 243.27-27.832 27.832c-3.0742 3.0742-3.0742 8.0586 0 11.133 3.0742 3.0742 8.0586 3.0742 11.133 0l27.832-27.832c3.0742-3.0742 3.0742-8.0586 0-11.133s-8.0586-3.0742-11.133 0z"/>
  <path d="m514.11 237.7-50.098 50.098c-3.0742 3.0742-3.0742 8.0586 0 11.133 3.0742 3.0742 8.0586 3.0742 11.133 0l38.965-38.965z"/>
  <path d="m430.62 243.27-33.398 33.398c-3.0742 3.0742-3.0742 8.0586 0 11.133s8.0586 3.0742 11.133 0l33.398-33.398c3.0742-3.0742 3.0742-8.0586 0-11.133s-8.0586-3.0742-11.133 0z"/>
  <path d="m497.41 198.74-38.965 38.965c-3.0742 3.0742-3.0742 8.0586 0 11.133 3.0742 3.0742 8.0586 3.0742 11.133 0l38.965-38.965c3.0742-3.0742 3.0742-8.0586 0-11.133s-8.0586-3.0742-11.133 0z"/>
  <path d="m452.88 176.47-38.965 38.965c-3.0742 3.0742-3.0742 8.0586 0 11.133 3.0742 3.0742 8.0586 3.0742 11.133 0l44.531-44.531-5.5664-5.5664c-3.0742-3.0742-8.0586-3.0742-11.133 0z"/>
 </g>
</svg>