<?xml version="1.0" encoding="UTF-8"?>
<!-- Uploaded to: SVG Find, www.svgrepo.com, Generator: SVG Find Mixer Tools -->
<svg fill="#000000" width="800px" height="800px" version="1.1" viewBox="144 144 512 512" xmlns="http://www.w3.org/2000/svg">
 <g>
  <path d="m515.68 389.12c20.781-10.613 39.547-24.797 54.562-41.98 29.988-34.312 27.645-63.367 20.391-81.715-10.066-25.457-44.672-84.805-148.35-86.047-62.359-0.10547-123.8 21.855-172.98 63.625-3.9141 3.3164-7.6016 6.5742-11.105 9.7695-74.758 68.359-56.324 109.61-41.508 142.74 2.7461 6.1523 6.5781 11.621 10.906 16.715-42.5 31.816-41.023 66.43-39.746 95.668 1.2305 28.562 17.918 53.285 49.582 73.453 26.844 17.121 58.633 26.828 91.926 28.086l38.973 1.4648c12.953 0.49219 25.738 1.8516 38.027 4.0352 15.008 2.6719 37.332 5.6758 61.508 5.6758 2.3398 0 4.6992-0.03125 7.0664-0.089843 29.879-0.74609 59.32-8.1875 85.156-21.512 43.387-22.348 52.492-52.164 52.492-73.258 0.003906-27.641-9.8945-93.781-96.902-136.63zm-249.23-127.31c3.3906-3.0938 6.9766-6.2578 10.77-9.4844 46.184-39.215 103.62-60.727 162.05-60.727 0.95703 0 1.918 0.015625 2.8672 0.03125 96.266 1.1367 127.96 55.137 137.11 78.309 8.7305 22.062 2.6016 45.324-18.227 69.152-16.109 18.434-36.77 33.367-59.77 43.512-0.96094-0.40625-1.793-0.85156-2.7695-1.25-61.988-25.367-132.3-27.082-197.94-4.7812-5.2344 1.7773-10.211 3.5703-14.969 5.3789-19.59 7.4648-35.246 15.293-47.867 23.34-3.9531-4.4492-7.3945-9.293-9.8398-14.766-14.582-32.613-29.652-66.332 38.586-128.71zm288.03 326.32c-24.199 12.488-51.816 19.465-79.855 20.168-25.77 0.47656-50.223-2.6016-66.125-5.4062-12.84-2.2852-26.195-3.7031-39.707-4.2109l-38.973-1.4648c-31.125-1.1797-60.793-10.234-85.816-26.172-28.094-17.91-42.875-39.332-43.934-63.684-1.6797-38.555-3.4141-78.441 89.871-113.96h0.007812c4.6094-1.7773 9.4492-3.5117 14.527-5.2266 29.316-9.9648 59.59-14.922 89.57-14.922 34.285 0 68.18 6.4844 99.805 19.434 96.113 39.363 106.5 106.17 106.5 133.07 0 25.715-15.43 46.703-45.867 62.375z"/>
  <path d="m309 465.61c-0.54688 0.3125-5.4297 3.2578-7.0938 9.4102-0.85156 3.1523-1.1055 8.2461 2.5234 14.551 1.1289 1.9727 3.1875 3.0781 5.3125 3.0781 1.0312 0 2.0859-0.26953 3.0391-0.82031 2.9336-1.6875 3.9453-5.4219 2.2539-8.3516-2.4727-4.3164-1.2773-6.3633 0.17188-7.3203 2.8477-1.7188 3.8086-5.3906 2.1523-8.293-1.6953-2.9258-5.4219-3.9414-8.3594-2.2539z"/>
  <path d="m231.12 519.25c-2.375-1.3594-2.9492-2.8242-3.1758-3.8086-0.90234-3.9727 2.1211-9.6055 3.2578-11.266 1.8984-2.7773 1.1953-6.5898-1.582-8.5-2.7852-1.9102-6.5664-1.2266-8.4844 1.5391-0.76172 1.1055-7.3555 10.98-5.1328 20.883 1.1055 4.9453 4.2266 9.0078 9.0078 11.758 0.96484 0.55469 2.0156 0.82031 3.0469 0.82031 2.1211 0 4.1836-1.1055 5.3125-3.0781 1.6836-2.9258 0.67578-6.6602-2.25-8.3477z"/>
  <path d="m422.76 435.93c-2.8594 1.7344-3.7891 5.4688-2.0977 8.3672 0.015625 0.03125 1.4336 2.5547 0.77734 4.75-0.44922 1.4922-1.8828 2.8359-4.2656 4.0195-3.0312 1.4922-4.2734 5.168-2.7695 8.2031 1.0664 2.1523 3.2344 3.4062 5.4883 3.4062 0.91016 0 1.8359-0.21094 2.7031-0.64062 7.0273-3.4805 9.6562-8.2773 10.629-11.684 2.0898-7.3633-1.6953-13.742-2.1367-14.461-1.7852-2.8438-5.4883-3.6797-8.3281-1.9609z"/>
  <path d="m344.77 409.11c-2.8672 1.793-3.75 5.5742-1.957 8.4414 0.015625 0.015624 1.3281 2.4336 0.73047 4.5273-0.41797 1.4648-1.832 2.793-4.1992 3.9727-3.0312 1.4922-4.2734 5.168-2.7695 8.2031 1.0625 2.1523 3.2344 3.4062 5.4883 3.4062 0.91016 0 1.832-0.21094 2.7031-0.64062 6.9688-3.4375 9.582-8.2031 10.547-11.594 2.0781-7.3047-1.6797-13.652-2.1211-14.355-1.7812-2.8594-5.5547-3.7539-8.4219-1.9609z"/>
  <path d="m533.05 423.06c-1.9336-2.7773-5.7422-3.4492-8.5234-1.5078-5.0039 3.5117-10.152 12.457-3.832 22.766 1.1484 1.8828 3.1602 2.9297 5.2227 2.9297 1.0898 0 2.1875-0.30078 3.1875-0.91016 2.8828-1.7617 3.7852-5.5273 2.0234-8.4102-1.6562-2.7031-1.4883-4.8555 0.50781-6.4102 2.6914-1.957 3.332-5.707 1.4141-8.457z"/>
  <path d="m566.21 465.03c-2.8555 1.8242-3.6953 5.6016-1.8828 8.457 0.30469 0.49219 0.84375 1.9414 0.80078 2.3164-2.3672 2.4062-2.3398 6.2891 0.074219 8.6484 1.1875 1.1797 2.7422 1.7617 4.2891 1.7617 1.582 0 3.168-0.61328 4.3633-1.8359 5.707-5.7969 3.1875-13.699 0.80078-17.465-1.8203-2.8555-5.6016-3.6914-8.4453-1.8828z"/>
  <path d="m546.91 510.02c-2.5039 2.2109-2.7344 6.0664-0.55469 8.6055 0.24609 0.28516 5.8398 6.9609 2 17.883-1.1211 3.1953 0.55859 6.6914 3.75 7.7969 0.66406 0.23828 1.3516 0.35937 2.0234 0.35937 2.5234 0 4.8906-1.582 5.7734-4.0938 6.3242-18.031-4.0117-29.652-4.4531-30.133-2.2422-2.4648-6.043-2.6406-8.5391-0.41797z"/>
  <path d="m461.3 526.53c-3.0234-1.4648-6.6992-0.21094-8.1797 2.8242-0.67969 1.3906-6.4102 13.895 0.58984 23.332 1.1953 1.6133 3.0469 2.4805 4.9219 2.4805 1.2617 0 2.5391-0.40234 3.6367-1.2109 2.7109-2 3.2852-5.8398 1.2695-8.5586-2.2266-3.0039-0.26172-8.9023 0.60547-10.727 1.4492-3.0312 0.1875-6.6758-2.8438-8.1406z"/>
  <path d="m350.12 554.2c2.4414-2.2852 2.6016-6.125 0.32812-8.6055-2.2773-2.4805-6.1484-2.6445-8.6406-0.375-0.61328 0.55469-5.9922 5.707-6.2461 13.43-0.11328 3.4805 0.82812 8.7539 5.9609 14.102 1.2031 1.2383 2.8086 1.8828 4.4141 1.8828 1.5234 0 3.0469-0.56641 4.2344-1.7031 2.4414-2.3438 2.5156-6.2148 0.17969-8.6641-4.2344-4.4062-2.4648-7.9023-0.23047-10.066z"/>
  <path d="m266.76 299.82c1.6133 0 3.2188-0.64062 4.4219-1.8984 2.3398-2.4336 2.25-6.3047-0.1875-8.6484-2.5391-2.418-2.5391-4.0938-2.5312-4.6289 0-2.2266 1.8164-4.4375 2.5156-5.1094 2.4648-2.2695 2.6445-6.1094 0.39453-8.6055-2.2773-2.5078-6.1602-2.7188-8.6406-0.43359-0.65625 0.59766-6.4023 6.0039-6.5117 13.922-0.046875 3.4492 1.0078 8.6211 6.3047 13.699 1.1875 1.1367 2.7109 1.7031 4.2344 1.7031z"/>
  <path d="m340.09 251.88c1 0.61328 2.1055 0.91016 3.1953 0.91016 2.0625 0 4.0625-1.0469 5.2227-2.9297 1.7695-2.8672 0.86719-6.6484-2.0078-8.4102-2.1797-1.3438-4.8711-3.4648-5.3203-6.0039-0.45703-2.5703 1.375-5.0039 1.4922-5.1523 2.1211-2.5859 1.7773-6.4102-0.78516-8.5586-2.5859-2.1641-6.4453-1.8516-8.625 0.73047-0.55859 0.67188-5.4844 6.7969-4.1758 14.863 0.92578 5.7383 4.6328 10.637 11.004 14.551z"/>
  <path d="m312.74 343.71c1.1289 0.89453 2.4727 1.3438 3.8008 1.3438 1.8008 0 3.5859-0.79297 4.7969-2.3164 2.1055-2.6445 1.6641-6.5-0.97656-8.5898-8.2695-6.5898-5.2734-12.07-4.1367-13.609 2.0469-2.6445 1.6055-6.4375-1.0156-8.5312-2.6367-2.1055-6.5-1.6719-8.5977 0.95703-0.5 0.62891-4.8633 6.3633-3.9492 14.402 0.68359 6.0664 4.0742 11.562 10.078 16.344z"/>
  <path d="m259.58 366.88c0.30469 0.046875 0.60547 0.074219 0.89453 0.074219 2.9883 0 5.6016-2.1953 6.0508-5.2422 0.48437-3.3477-1.832-6.4531-5.168-6.9297-2.3242-0.34375-3.2266-1.2695-3.75-2.0312-2.0547-2.9727-1.375-8.7227-0.97656-10.488 0.73828-3.2852-1.3164-6.5742-4.5938-7.3203-3.293-0.74609-6.5508 1.2695-7.3281 4.5547-0.28516 1.2266-2.6367 12.176 2.7695 20.121 2.7188 3.9922 6.9023 6.5 12.102 7.2617z"/>
  <path d="m400.67 264.31c0.34375 3.4375-1.2539 7.1406-4.7578 11.012-2.2695 2.5078-2.0781 6.3789 0.42578 8.6484 1.1719 1.0625 2.6445 1.582 4.1094 1.582 1.6641 0 3.332-0.6875 4.5352-2.0156 5.9219-6.543 8.5664-13.414 7.8711-20.438-1.0391-10.426-9.1211-16.688-10.039-17.359-2.7188-2.0156-6.5586-1.4336-8.5586 1.2695-2.0078 2.7188-1.4336 6.5586 1.2852 8.5586 0.042969 0.046876 4.6211 3.6484 5.1289 8.7422z"/>
  <path d="m448.36 240.12c1.1055 0.83594 2.3984 1.2383 3.6758 1.2383 1.8594 0 3.6914-0.85156 4.8906-2.4336 2.0312-2.7031 1.4922-6.543-1.2031-8.5742-4.8398-3.6445-2.4961-13.445-2.4648-13.551 0.82812-3.2578-1.1211-6.5898-4.3828-7.4375-3.1875-0.80859-6.5742 1.0742-7.4531 4.332-1.7422 6.5586-2.2422 19.512 6.9375 26.426z"/>
  <path d="m519.38 248.27c-1.3242 3.1211 0.13672 6.707 3.25 8.0234 0.77734 0.32812 1.582 0.49219 2.3828 0.49219 2.3828 0 4.6445-1.4023 5.6328-3.7344 4.8633-11.473-3.5703-21.602-9.3203-25.77-2.7344-1.957-6.5742-1.3594-8.5469 1.375-1.9883 2.7344-1.375 6.5586 1.3594 8.5469 0.070313 0.039063 7.4961 5.7305 5.2422 11.066z"/>
  <path d="m527.72 274.26c-1.5156 2.9727-0.3125 6.6484 2.6367 8.2031 0.30078 0.16406 7.207 3.9297 7.6094 14.414 0.125 3.2852 2.8477 5.8867 6.1094 5.8867 0.082031 0 0.16406 0 0.24609-0.015625 3.375-0.11719 6.0039-2.9727 5.8789-6.3477-0.69531-18-13.832-24.617-14.387-24.887-3.0156-1.4688-6.5859-0.22656-8.0938 2.7461z"/>
  <path d="m452.52 320.39c-0.050781 0.74609-1.2305 18.18 10.785 25.68 1.0078 0.64063 2.1289 0.94141 3.2344 0.94141 2.0391 0 4.0352-1.0312 5.1992-2.8828 1.7852-2.8672 0.91797-6.6484-1.9492-8.4258-5.6328-3.5273-5.0703-14.297-5.0625-14.414 0.22266-3.3633-2.3086-6.2891-5.668-6.5273-3.3477 0.042969-6.2852 2.2695-6.5391 5.6289z"/>
 </g>
</svg>