<?xml version="1.0" encoding="UTF-8"?>
<!-- Uploaded to: SVG Find, www.svgrepo.com, Generator: SVG Find Mixer Tools -->
<svg fill="#000000" width="800px" height="800px" version="1.1" viewBox="144 144 512 512" xmlns="http://www.w3.org/2000/svg">
 <g>
  <path d="m630.01 495.91c-6.6719-11.973-19.633-21.453-33.863-18.727-13.449 2.5742-24.469 2.3359-37.898-1.332-16.449-4.4922-32.238-11.375-47.656-18.566-15.277-7.125-29.902-15.34-46.309-19.66 38.723-26.02 65.551-65.277 84.727-107.22 8.8477-19.355 16.172-39.422 22.012-59.883 2.7812-9.7422 4.2656-20.105 8.0859-29.473 7.793-19.102 28.805-82.219-12.828-76.918-12.891 1.6406-25.898 9.0391-35.574 17.285-6.0156 5.125-14.285 7.8984-21.695 10.16-19.578 5.9844-40.305 8.1367-60.656 9.3867-24.578 1.5078-49.309-0.91406-72.84 7.7695-39.918 14.738-69.688 49.34-92.367 84.02-10.488 16.035-19.797 32.836-28.199 50.051-7.5117 15.391-13.117 32.02-21.805 46.777-18.328 31.129-52.227 51.254-66.406 85.379-7.6172 18.336 0.63672 31.977 21.684 34.363 21.223 2.4062 43.191 0.26953 64.297-2.3164 24.832-3.0391 49.488-7.6562 73.793-13.582 10.129-2.4688 20.176-5.2383 30.168-8.2109-7.6055 33.629-7.3828 71.625 2.5547 104.78 3.4414 11.488 8.5078 24.578 18.328 32.176 4.2734 3.3086 8.3633 4.1445 13.531 4.9297 6.4219 0.97656 12.855 3.0352 19.336 4.2031 33.977 6.1289 69.656 7.668 103.05-2.3008 35.188-10.504 64.07-33.008 91.914-56.105 22.312-18.523 40.586-48.301 24.613-76.984zm-444.68-2.9102c-11.879-2.0977-2.3672-16.121 1.3086-22.035 12.148-19.555 29.199-34.824 44.383-51.859 15.547-17.441 23.508-38.105 33.121-58.957 9.3086-20.188 19.828-39.867 31.984-58.488 14.676-22.477 31.914-43.996 53.391-60.348 2.8047 4.9766 5.2422 10.156 7.3242 15.473 1.75 4.4648 2.5078 11.688 6.0273 15.086 3.3633 3.2422 9.0312 2.7188 11.75-1.0469 3.1875-4.4141 0.40234-9.9961-1.1836-14.539-1.8906-5.4141-4.1094-10.715-6.6445-15.859-0.85156-1.7227-3.5469-5.0352-3.6367-6.8828-0.12109-2.4844 4.3789-4 7.125-5.3711 10.652-5.3125 22.191-8.9414 34.07-10.047 12.516-1.1641 25.289-0.46484 37.859-1.0742 5.5742-0.26953 12.559-1.9375 18.09-1.1953 3.3477 0.44922 6.3633 3.168 9.1055 5.3203 7.0781 5.5625 13.301 12.277 17.875 20.055 2.3477 3.9961 4.2461 8.2344 5.6211 12.66 1.5586 5.0117 1.7695 11.219 8.1797 12.168 15.176 2.2461 5.9453-20.48 3.1367-26.457-4.7461-10.105-11.75-19.039-20.02-26.5 17.742-2.7188 37.496-6.4844 52.727-16.664 4.8711-3.2578 8.6562-6.9648 13.914-9.832 5.0195-2.7344 14.371-8.5 20.59-6.8984 12.348 3.1797-0.61328 37.895-2.9414 44.738-2.2539 6.6172-5.4336 12.922-7.0352 19.719-1.4844 6.3008-2.9727 12.586-4.707 18.824-7.6797 27.625-18.027 54.672-31.496 80-14.234-16.176-29.98-31.176-47.191-44.16-3.332-2.5117-6.7734-5.4609-10.48-7.4258-7.6758-4.0625-17.094 4.0156-10.578 11.617 2.0039 2.3398 5.5938 4.0078 8.0312 5.7773 6.1875 4.4883 12.145 9.3047 17.918 14.312 9.1133 7.9062 17.773 16.348 25.934 25.238 1.9414 2.1133 4.5547 4.332 6.0547 6.7773 2.6094 4.2617 1.8086 1.2461 0.53906 4.8164-0.42969 1.2109-1.5781 2.5312-2.2734 3.6133-3.4727 5.4414-7.125 10.762-10.992 15.934-14.152 18.938-31.062 35.336-51.039 48.043-5.3828 3.4219-8.7812 6.0508-15.102 5.7109-4.9336-0.26562-9.8906-0.27344-14.828-0.035156-9.3633 0.44922-18.75 1.7109-27.844 4.0156-8.2734 2.0977-14.68 3.9062-20.48 10.633-3.0273 3.5078-5.4297 7.4727-7.4883 11.613-0.88672 1.7773-1.8828 6.3828-3.4102 7.6523-2 1.6641-7.5156 2.3125-9.9688 3.0391-2.6094 0.76953-5.2227 1.5234-7.8438 2.2656-4.5547 1.2891-5.0508 2.0156-8.0781-2.1719-3.8086-5.2695-7.5195-10.609-11.121-16.027-5.1367-7.7266-10.074-15.59-14.711-23.625-2.0781-3.5977-3.7383-8.1094-6.3633-11.355-6.8438-8.4531-16.746 0.13672-12.926 9.0117 7.6016 17.672 20.316 34.465 31.449 49.949-27.227 6.6406-54.934 11.652-82.836 14.387-17.715 1.7383-36.617 3.5273-54.289 0.40625zm182.14 39.633c0-15.473 1.3828-31.117 5.0625-46.172 2.3906-9.793 5.8555-24.672 14.707-30.871 16.332-11.441 25.477 46.172 26.293 54.094 2.793 27.012 1.707 56.527-7.8477 82.234-3.2344 8.6992-11.508 27.203-21.59 14.676-5.8789-7.3047-8.8359-17.297-11.121-26.207-3.9922-15.543-5.5039-31.734-5.5039-47.754zm231.12 25.441c-12.035 10.004-24.105 20.008-36.887 29.055-0.64062-14.844-0.54297-31.488-4.4141-45.977-1.7188-6.4297-9.8125-10.707-14.438-3.8164-2.207 3.2891-0.90625 7.3086-0.37109 10.895 0.94922 6.3867 1.625 12.816 2.1797 19.246 0.44141 5.125 0.79297 10.258 1.0625 15.395 0.14844 2.7656 0.26953 5.5352 0.375 8.3047 0.16016 4.3203 0.75781 5.6602-3.0938 7.8594-17.785 10.168-37.141 17.164-57.48 19.914-24.574 3.3242-50.109 1.0781-74.387-3.5156 16.555-21.898 19.109-55.051 19.301-81.504 0.19922-27.109-2.3281-61.492-19.34-84.031 15.75-2.0352 32.004-1.4102 47.441 2.4023 4.4453 1.0977 8.832 2.4609 13.109 4.0938 2.2227 0.84766 5.582 1.8242 7.543 3.1953 2.4727 1.7227 2.0156 1.0508 2.5938 4.1445 1.4414 7.6953 0.27344 16.883-0.11328 24.641-0.47266 9.418-2.9453 19.094-3.0234 28.441-0.058594 7.0625 7.7383 12.711 13.457 6.6406 5.1992-5.5234 4.3086-20.137 4.8516-27.363 0.6875-9.1562 0.92969-18.344 0.73438-27.52 18.281 8.7461 37.02 17.148 56.633 22.441 7.7461 2.0898 15.695 3.7031 23.727 4.125 7.4922 0.39062 13.789-1.5039 21.02-2.4648 13.336-1.7656 20.902 14.668 21.223 25.816 0.46484 15.98-9.9844 29.82-21.703 39.582z"/>
  <path d="m354.89 389.84c3.6172 3.6172 9.8984 2.7539 12.414-1.6797 3.2812-5.7852-1.8945-9.9883-5.5352-13.809-7.4219-7.7969-14.363-16.086-20.492-24.941-3.8281-5.5312-7.4023-11.293-10.348-17.348-1.3008-2.6758-2.375-6.832-4.6484-8.8203-6.625-5.8008-14.352 1.6445-12.461 8.957 0.92188 3.5547 3.0664 7.1406 4.7656 10.348 9.3125 17.59 22.285 33.27 36.305 47.293z"/>
 </g>
</svg>